<?xml version="1.0" encoding="UTF-8" standalone="no"?>
<svg
   xmlns:dc="http://purl.org/dc/elements/1.1/"
   xmlns:cc="http://creativecommons.org/ns#"
   xmlns:rdf="http://www.w3.org/1999/02/22-rdf-syntax-ns#"
   xmlns:svg="http://www.w3.org/2000/svg"
   xmlns="http://www.w3.org/2000/svg"
   xmlns:sodipodi="http://sodipodi.sourceforge.net/DTD/sodipodi-0.dtd"
   xmlns:inkscape="http://www.inkscape.org/namespaces/inkscape"
   viewBox="0 0 600 600"
   version="1.1"
   id="svg4574"
   sodipodi:docname="md-mana-cs.svg"
   inkscape:version="0.92.4 (5da689c313, 2019-01-14)">
  <metadata
     id="metadata4580">
    <rdf:RDF>
      <cc:Work
         rdf:about="">
        <dc:format>image/svg+xml</dc:format>
        <dc:type
           rdf:resource="http://purl.org/dc/dcmitype/StillImage" />
        <dc:title></dc:title>
      </cc:Work>
    </rdf:RDF>
  </metadata>
  <defs
     id="defs4578" />
  <sodipodi:namedview
     pagecolor="#ffffff"
     bordercolor="#666666"
     borderopacity="1"
     objecttolerance="10"
     gridtolerance="10"
     guidetolerance="10"
     inkscape:pageopacity="0"
     inkscape:pageshadow="2"
     inkscape:window-width="1920"
     inkscape:window-height="1137"
     id="namedview4576"
     showgrid="false"
     units="in"
     inkscape:zoom="1"
     inkscape:cx="103.10199"
     inkscape:cy="239.56633"
     inkscape:window-x="-8"
     inkscape:window-y="-8"
     inkscape:window-maximized="1"
     inkscape:current-layer="svg4574" />
  <circle
     cx="300"
     cy="300"
     r="300"
     id="circle4570"
     fill="#cbc2bf" />
  <polygon
     points="85.279,59.05 89.99,59.05 92.203,55.318 100,50 92.203,44.681 89.99,40.95 85.279,40.95 92.333,25.559 75.479,23.973 77.833,19.893 75.707,16.111 75,6.699 66.496,10.792 62.158,10.843 59.803,14.922 50,1.118 40.198,14.922 37.843,10.843 33.505,10.792 25,6.699 24.293,16.111 22.168,19.893 24.523,23.973 7.667,25.56 14.722,40.95 10.011,40.95 7.798,44.682 0,50 7.797,55.318 10.011,59.05 14.722,59.05 7.668,74.441 24.523,76.027 22.168,80.105 24.293,83.889 25.001,93.303 33.505,89.209 37.843,89.157 40.198,85.077 50.001,98.881 59.803,85.077 62.158,89.157 66.496,89.208 75.001,93.303 75.708,83.891 77.833,80.105 75.479,76.027 92.334,74.439 "
     transform="matrix(5.9998495,0,0,5.9999097,0.00474674,0.00432513)"
     id="polygon489"
     style="fill:#0d0f0f;image-rendering:auto" />
  <polygon
     points="72.117,19.789 72.117,15.743 68.611,13.719 65.107,15.742 65.105,19.789 50.001,44.125 34.896,19.789 34.895,15.741 31.392,13.718 27.885,15.743 27.885,19.789 31.391,21.813 44.913,47.063 16.285,47.976 12.778,45.953 9.275,47.975 9.275,52.023 12.778,54.047 16.285,52.023 44.913,52.938 31.39,78.188 27.885,80.211 27.884,84.258 31.39,86.281 34.895,84.258 34.895,80.211 50,55.875 65.105,80.211 65.105,84.259 68.609,86.282 72.116,84.258 72.116,80.212 68.609,78.188 55.088,52.938 83.717,52.023 87.223,54.048 90.727,52.025 90.727,47.976 87.223,45.953 83.717,47.976 55.088,47.063 68.611,21.813 "
     transform="matrix(5.9998495,0,0,5.9999097,0.00474674,0.00432513)"
     id="polygon491"
     style="fill:#ffffff;image-rendering:auto" />
  <polygon
     points="50.001,34.681 42.951,22.393 50.001,10.104 57.051,22.393 "
     transform="matrix(5.9998495,0,0,5.9999097,0.00474674,0.00432513)"
     id="polygon493"
     style="fill:#ffffff;image-rendering:auto" />
  <polygon
     points="36.734,42.34 22.567,42.301 15.45,30.052 29.617,30.09 "
     transform="matrix(5.9998495,0,0,5.9999097,0.00474674,0.00432513)"
     id="polygon495"
     style="fill:#ffffff;image-rendering:auto" />
  <polygon
     points="36.733,57.659 29.616,69.908 15.449,69.947 22.566,57.697 "
     transform="matrix(5.9998495,0,0,5.9999097,0.00474674,0.00432513)"
     id="polygon497"
     style="fill:#ffffff;image-rendering:auto" />
  <polygon
     points="50,65.318 57.05,77.607 50,89.896 42.949,77.607 "
     transform="matrix(5.9998495,0,0,5.9999097,0.00474674,0.00432513)"
     id="polygon499"
     style="fill:#ffffff;image-rendering:auto" />
  <polygon
     points="63.268,57.66 77.434,57.699 84.551,69.947 70.384,69.91 "
     transform="matrix(5.9998495,0,0,5.9999097,0.00474674,0.00432513)"
     id="polygon501"
     style="fill:#ffffff;image-rendering:auto" />
  <polygon
     points="63.268,42.341 70.385,30.092 84.551,30.053 77.436,42.303 "
     transform="matrix(5.9998495,0,0,5.9999097,0.00474674,0.00432513)"
     id="polygon503"
     style="fill:#ffffff;image-rendering:auto" />
</svg>
