<?xml version="1.0" encoding="UTF-8" standalone="no"?>
<svg
   xmlns:dc="http://purl.org/dc/elements/1.1/"
   xmlns:cc="http://creativecommons.org/ns#"
   xmlns:rdf="http://www.w3.org/1999/02/22-rdf-syntax-ns#"
   xmlns:svg="http://www.w3.org/2000/svg"
   xmlns="http://www.w3.org/2000/svg"
   xmlns:sodipodi="http://sodipodi.sourceforge.net/DTD/sodipodi-0.dtd"
   xmlns:inkscape="http://www.inkscape.org/namespaces/inkscape"
   viewBox="0 0 600 600"
   version="1.1"
   id="svg9267"
   sodipodi:docname="md-mana-14.svg"
   inkscape:version="0.92.4 (5da689c313, 2019-01-14)">
  <metadata
     id="metadata9273">
    <rdf:RDF>
      <cc:Work
         rdf:about="">
        <dc:format>image/svg+xml</dc:format>
        <dc:type
           rdf:resource="http://purl.org/dc/dcmitype/StillImage" />
        <dc:title></dc:title>
      </cc:Work>
    </rdf:RDF>
  </metadata>
  <defs
     id="defs9271" />
  <sodipodi:namedview
     pagecolor="#ffffff"
     bordercolor="#666666"
     borderopacity="1"
     objecttolerance="10"
     gridtolerance="10"
     guidetolerance="10"
     inkscape:pageopacity="0"
     inkscape:pageshadow="2"
     inkscape:window-width="1920"
     inkscape:window-height="1017"
     id="namedview9269"
     showgrid="false"
     inkscape:zoom="0.39333333"
     inkscape:cx="300"
     inkscape:cy="300"
     inkscape:window-x="1912"
     inkscape:window-y="113"
     inkscape:window-maximized="1"
     inkscape:current-layer="svg9267" />
  <circle
     cx="300"
     cy="300"
     r="300"
     id="circle9263"
     fill="#cbc2bf" />
  <path
     d="m 196.16995,116.82349 v 294.31802 c 0,34.734 14.56202,52.10398 43.65606,52.10398 h 6.92396 V 483.1775 H 90.378021 v -19.93201 h 9.977959 c 29.62801,0 44.44201,-17.36998 44.44201,-52.10398 v -193.146 c 0,-35.27403 -12.54003,-52.896 -37.55402,-52.896 H 91.901991 v -19.92003 h 6.137948 c 30.126021,0 57.474041,-9.44401 81.990041,-28.34998 l 16.13997,-0.007 v 0 z m 258.28202,262.12198 v 30.65405 c 0,34.24198 11.97601,51.36596 36.01797,51.36596 h 9.94804 v 19.89601 H 354.02997 v -19.89601 h 11.50801 c 24.01797,0 36.024,-16.878 36.024,-50.57999 V 378.94547 H 254.39397 V 348.29149 L 409.98599,121.40748 h 44.47202 v 231.468 h 3.83395 c 14.82,0 25.79399,-11.71802 32.93399,-35.23803 h 18.39603 l -9.19799,61.31403 -45.97202,-0.007 v 0 z M 413.81396,348.29149 V 155.15751 L 283.51797,348.29149 Z"
     inkscape:connector-curvature="0"
     id="path97"
     style="fill:#0d0f0f" />
</svg>
