<?xml version="1.0" encoding="UTF-8" standalone="no"?>
<svg
   xmlns:dc="http://purl.org/dc/elements/1.1/"
   xmlns:cc="http://creativecommons.org/ns#"
   xmlns:rdf="http://www.w3.org/1999/02/22-rdf-syntax-ns#"
   xmlns:svg="http://www.w3.org/2000/svg"
   xmlns="http://www.w3.org/2000/svg"
   xmlns:sodipodi="http://sodipodi.sourceforge.net/DTD/sodipodi-0.dtd"
   xmlns:inkscape="http://www.inkscape.org/namespaces/inkscape"
   viewBox="0 0 600 600"
   version="1.1"
   id="svg9267"
   sodipodi:docname="md-mana-13.svg"
   inkscape:version="0.92.4 (5da689c313, 2019-01-14)">
  <metadata
     id="metadata9273">
    <rdf:RDF>
      <cc:Work
         rdf:about="">
        <dc:format>image/svg+xml</dc:format>
        <dc:type
           rdf:resource="http://purl.org/dc/dcmitype/StillImage" />
        <dc:title></dc:title>
      </cc:Work>
    </rdf:RDF>
  </metadata>
  <defs
     id="defs9271" />
  <sodipodi:namedview
     pagecolor="#ffffff"
     bordercolor="#666666"
     borderopacity="1"
     objecttolerance="10"
     gridtolerance="10"
     guidetolerance="10"
     inkscape:pageopacity="0"
     inkscape:pageshadow="2"
     inkscape:window-width="1920"
     inkscape:window-height="1017"
     id="namedview9269"
     showgrid="false"
     inkscape:zoom="0.39333333"
     inkscape:cx="300"
     inkscape:cy="300"
     inkscape:window-x="1912"
     inkscape:window-y="113"
     inkscape:window-maximized="1"
     inkscape:current-layer="svg9267" />
  <circle
     cx="300"
     cy="300"
     r="300"
     id="circle9263"
     fill="#cbc2bf" />
  <path
     d="m 203.80502,118.73999 v 291.25799 c 0,34.24198 14.56796,51.32999 43.692,51.32999 h 6.89399 v 19.93204 H 99.578995 V 461.32797 H 109.557 c 29.628,0 44.436,-17.08801 44.436,-51.32999 V 219.13196 c 0,-35.23799 -12.53399,-52.88398 -37.54801,-52.88398 H 101.097 V 146.352 h 6.14402 c 30.12599,0 57.22797,-9.21005 81.23996,-27.61201 z m 130.30194,193.14602 -9.198,-16.878 6.91799,-3.84605 c 22.98602,-14.27397 44.32202,-28.70999 63.99601,-43.28995 19.64401,-14.55602 29.50203,-31.02003 29.50203,-49.42804 0,-12.77395 -4.86603,-23.388 -14.56202,-31.80599 -9.702,-8.44799 -20.46,-12.65396 -32.18399,-12.65396 -29.65799,0 -60.81599,17.89197 -93.52799,53.66996 l -15.31799,-11.508 c 33.71399,-51.096 75.10199,-76.66203 124.15197,-76.66203 21.45598,0 39.61201,5.37003 54.42001,16.10404 17.37599,11.79002 26.07603,27.86997 26.07603,48.30598 0,14.32201 -6.14403,28.35 -18.40204,42.12602 -7.16996,7.67399 -19.42798,18.14999 -36.798,31.43998 l -6.89403,6.13802 c 3.06002,-0.49202 6.89403,-0.774 11.50804,-0.774 22.48796,0 40.85997,8.57997 55.16998,25.66201 14.316,17.112 21.45604,36.67797 21.45604,58.626 0,38.84999 -16.34404,71.03998 -49.06202,96.57602 -29.62803,24.51593 -64.12203,36.80994 -103.44002,36.80994 -36.30601,0 -64.64997,-7.67399 -85.08,-23.01601 l 10.72804,-15.318 c 24.012,11.22603 45.96596,16.87803 65.89196,16.87803 28.62601,0 54.17403,-9.44397 76.65599,-28.38 22.48803,-18.88798 33.71406,-42.408 33.71406,-70.51203 0,-18.89999 -5.616,-34.97994 -16.84204,-48.26998 -11.26203,-13.28999 -26.07596,-19.93197 -44.47199,-19.93197 -16.332,0.007 -34.48206,6.65399 -54.40802,19.93801 z"
     inkscape:connector-curvature="0"
     id="path103"
     style="fill:#0d0f0f" />
</svg>
