<?xml version="1.0" encoding="UTF-8" standalone="no"?>
<svg
   xmlns:dc="http://purl.org/dc/elements/1.1/"
   xmlns:cc="http://creativecommons.org/ns#"
   xmlns:rdf="http://www.w3.org/1999/02/22-rdf-syntax-ns#"
   xmlns:svg="http://www.w3.org/2000/svg"
   xmlns="http://www.w3.org/2000/svg"
   xmlns:sodipodi="http://sodipodi.sourceforge.net/DTD/sodipodi-0.dtd"
   xmlns:inkscape="http://www.inkscape.org/namespaces/inkscape"
   viewBox="0 0 600 600"
   version="1.1"
   id="svg9267"
   sodipodi:docname="md-mana-cz.svg"
   inkscape:version="0.92.4 (5da689c313, 2019-01-14)">
  <metadata
     id="metadata9273">
    <rdf:RDF>
      <cc:Work
         rdf:about="">
        <dc:format>image/svg+xml</dc:format>
        <dc:type
           rdf:resource="http://purl.org/dc/dcmitype/StillImage" />
        <dc:title></dc:title>
      </cc:Work>
    </rdf:RDF>
  </metadata>
  <defs
     id="defs9271" />
  <sodipodi:namedview
     pagecolor="#ffffff"
     bordercolor="#666666"
     borderopacity="1"
     objecttolerance="10"
     gridtolerance="10"
     guidetolerance="10"
     inkscape:pageopacity="0"
     inkscape:pageshadow="2"
     inkscape:window-width="1920"
     inkscape:window-height="1017"
     id="namedview9269"
     showgrid="false"
     inkscape:zoom="0.39333333"
     inkscape:cx="-255.50848"
     inkscape:cy="300"
     inkscape:window-x="1912"
     inkscape:window-y="113"
     inkscape:window-maximized="1"
     inkscape:current-layer="svg9267" />
  <circle
     cx="300"
     cy="300"
     r="300"
     fill="#cbc2bf"
     id="circle9263" />
  <path
     d="m 448.653,491.292 h -322.56 v -16.266 l 255.81,-343.32 H 268.029 c -18.708,0.378 -33.102,2.346 -43.2,5.886 -10.098,3.564 -19.452,10.38 -28.05,20.478 -0.75,0.756 -1.398,1.5 -1.962,2.244 -0.558,0.756 -1.218,1.5 -1.962,2.238 -1.5,2.25 -2.898,4.212 -4.212,5.892 -1.314,1.68 -2.52,3.462 -3.642,5.334 -0.378,1.128 -0.936,2.244 -1.68,3.366 -0.75,1.128 -1.5,2.25 -2.244,3.372 -0.756,2.244 -1.686,4.59 -2.802,7.008 -1.128,2.436 -2.442,5.334 -3.924,8.694 l -20.202,-0.564 v -86.946 h 306.294 v 15.144 L 202.401,468.288 h 111.63 c 16.83,0.378 30.198,0 40.11,-1.128 9.9,-1.122 19.158,-3.54 27.768,-7.278 1.122,-0.378 2.148,-0.75 3.084,-1.128 0.936,-0.378 1.77,-0.744 2.526,-1.128 5.238,-2.616 10.284,-5.61 15.144,-8.976 4.854,-3.366 9.72,-7.29 14.586,-11.778 3.366,-3.372 6.732,-7.008 10.098,-10.932 3.366,-3.93 6.918,-8.328 10.662,-13.182 l 14.586,-20.766 h 21.312 z"
     inkscape:connector-curvature="0"
     id="path481"
     style="fill:#0d0f0f;stroke-width:6" />
</svg>
