<?xml version="1.0" encoding="UTF-8" standalone="no"?>
<svg
   xmlns:dc="http://purl.org/dc/elements/1.1/"
   xmlns:cc="http://creativecommons.org/ns#"
   xmlns:rdf="http://www.w3.org/1999/02/22-rdf-syntax-ns#"
   xmlns:svg="http://www.w3.org/2000/svg"
   xmlns="http://www.w3.org/2000/svg"
   xmlns:sodipodi="http://sodipodi.sourceforge.net/DTD/sodipodi-0.dtd"
   xmlns:inkscape="http://www.inkscape.org/namespaces/inkscape"
   viewBox="0 0 600 600"
   version="1.1"
   id="svg9267"
   sodipodi:docname="md-mana-11.svg"
   inkscape:version="0.92.4 (5da689c313, 2019-01-14)">
  <metadata
     id="metadata9273">
    <rdf:RDF>
      <cc:Work
         rdf:about="">
        <dc:format>image/svg+xml</dc:format>
        <dc:type
           rdf:resource="http://purl.org/dc/dcmitype/StillImage" />
        <dc:title></dc:title>
      </cc:Work>
    </rdf:RDF>
  </metadata>
  <defs
     id="defs9271" />
  <sodipodi:namedview
     pagecolor="#ffffff"
     bordercolor="#666666"
     borderopacity="1"
     objecttolerance="10"
     gridtolerance="10"
     guidetolerance="10"
     inkscape:pageopacity="0"
     inkscape:pageshadow="2"
     inkscape:window-width="1920"
     inkscape:window-height="1017"
     id="namedview9269"
     showgrid="false"
     inkscape:zoom="0.39333333"
     inkscape:cx="300"
     inkscape:cy="300"
     inkscape:window-x="1912"
     inkscape:window-y="113"
     inkscape:window-maximized="1"
     inkscape:current-layer="svg9267" />
  <circle
     cx="300"
     cy="300"
     r="300"
     id="circle9263"
     fill="#cbc2bf" />
  <path
     d="m 231.00654,109.9235 v 305.04001 c 0,36.29397 15.09544,54.42 45.21587,54.42 h 7.67386 v 20.69397 H 121.40995 v -20.69397 h 10.72811 c 30.65418,0 46.00224,-18.12603 46.00224,-54.42 V 214.92352 c 0,-36.798 -13.03825,-55.17001 -39.10838,-55.17001 h -16.09786 v -20.69399 h 6.14439 c 31.67975,0 60.28178,-9.70203 85.82385,-29.13001 l 16.10424,-0.007 v 0 z m 194.69379,0 v 305.04001 c 0,36.29397 15.06625,54.42 45.22156,54.42 h 7.66816 v 20.69397 H 316.07422 v -20.69397 h 10.7281 c 30.68974,0 46.00191,-18.12603 46.00191,-54.42 V 214.92352 c 0,-36.798 -13.03792,-55.17001 -39.07785,-55.17001 h -16.09216 v -20.69399 h 6.11419 c 31.67942,0 60.28178,-9.70203 85.85975,-29.13001 l 16.09217,-0.007 v 0 z"
     inkscape:connector-curvature="0"
     id="path115"
     style="fill:#0d0f0f" />
</svg>
