<?xml version="1.0" encoding="UTF-8" standalone="no"?>
<svg
   xmlns:dc="http://purl.org/dc/elements/1.1/"
   xmlns:cc="http://creativecommons.org/ns#"
   xmlns:rdf="http://www.w3.org/1999/02/22-rdf-syntax-ns#"
   xmlns:svg="http://www.w3.org/2000/svg"
   xmlns="http://www.w3.org/2000/svg"
   xmlns:sodipodi="http://sodipodi.sourceforge.net/DTD/sodipodi-0.dtd"
   xmlns:inkscape="http://www.inkscape.org/namespaces/inkscape"
   viewBox="0 0 600 600"
   version="1.1"
   id="svg9267"
   sodipodi:docname="md-mana-15.svg"
   inkscape:version="0.92.4 (5da689c313, 2019-01-14)">
  <metadata
     id="metadata9273">
    <rdf:RDF>
      <cc:Work
         rdf:about="">
        <dc:format>image/svg+xml</dc:format>
        <dc:type
           rdf:resource="http://purl.org/dc/dcmitype/StillImage" />
        <dc:title></dc:title>
      </cc:Work>
    </rdf:RDF>
  </metadata>
  <defs
     id="defs9271" />
  <sodipodi:namedview
     pagecolor="#ffffff"
     bordercolor="#666666"
     borderopacity="1"
     objecttolerance="10"
     gridtolerance="10"
     guidetolerance="10"
     inkscape:pageopacity="0"
     inkscape:pageshadow="2"
     inkscape:window-width="1920"
     inkscape:window-height="1017"
     id="namedview9269"
     showgrid="false"
     inkscape:zoom="0.39333333"
     inkscape:cx="300"
     inkscape:cy="401.69492"
     inkscape:window-x="1912"
     inkscape:window-y="113"
     inkscape:window-maximized="1"
     inkscape:current-layer="svg9267" />
  <circle
     cx="300"
     cy="300"
     r="300"
     id="circle9263"
     fill="#cbc2bf" />
  <path
     d="m 205.701,108.77401 v 305.04001 c 0,36.26995 15.09601,54.42001 45.222,54.42001 h 7.66199 V 488.904 H 96.116991 v -20.66997 h 10.722039 c 30.65394,0 45.996,-18.15006 45.996,-54.42001 V 213.75001 c 0,-36.77402 -13.03205,-55.17005 -39.10805,-55.17005 H 97.634991 V 137.886 h 6.138019 c 31.68599,0 60.28198,-9.702 85.82996,-29.11199 z m 107.30996,7.63799 h 138.72609 c 17.90398,0 28.62598,-2.01599 32.21395,-6.12003 h 19.93201 L 492.375,162.41998 H 323.001 L 306.90901,237.516 c 23.98798,-9.70203 45.46801,-14.56802 64.37401,-14.56802 36.79804,0 67.83001,12.29401 93.12,36.81001 25.28999,24.50401 37.91999,55.15796 37.91999,91.96801 0,42.91196 -16.33794,77.38801 -49.01995,103.47598 -30.69001,24.00002 -67.74603,36.02401 -111.14998,36.02401 -25.54808,0 -50.58008,-3.84603 -75.09608,-11.50801 l 7.638,-19.14597 c 20.42399,5.60395 38.57995,8.41196 54.42,8.41196 31.68603,0 59.41204,-10.45197 83.16601,-31.40399 23.76603,-20.95198 35.61603,-47.03999 35.61603,-78.18596 0,-27.07205 -8.79005,-49.31403 -26.41199,-66.67802 -17.64599,-17.36998 -39.726,-26.06399 -66.30603,-26.06399 -25.03201,0 -48.27001,8.69401 -69.75001,26.06399 l -13.00799,-2.29803 z"
     inkscape:connector-curvature="0"
     id="path91"
     style="fill:#0d0f0f" />
</svg>
