<?xml version="1.0" encoding="UTF-8" standalone="no"?>
<svg
   xmlns:dc="http://purl.org/dc/elements/1.1/"
   xmlns:cc="http://creativecommons.org/ns#"
   xmlns:rdf="http://www.w3.org/1999/02/22-rdf-syntax-ns#"
   xmlns:svg="http://www.w3.org/2000/svg"
   xmlns="http://www.w3.org/2000/svg"
   xmlns:sodipodi="http://sodipodi.sourceforge.net/DTD/sodipodi-0.dtd"
   xmlns:inkscape="http://www.inkscape.org/namespaces/inkscape"
   viewBox="0 0 600 600"
   version="1.1"
   id="svg4574"
   sodipodi:docname="md-mana-10.svg"
   inkscape:version="0.92.4 (5da689c313, 2019-01-14)">
  <metadata
     id="metadata4580">
    <rdf:RDF>
      <cc:Work
         rdf:about="">
        <dc:format>image/svg+xml</dc:format>
        <dc:type
           rdf:resource="http://purl.org/dc/dcmitype/StillImage" />
        <dc:title></dc:title>
      </cc:Work>
    </rdf:RDF>
  </metadata>
  <defs
     id="defs4578" />
  <sodipodi:namedview
     pagecolor="#ffffff"
     bordercolor="#666666"
     borderopacity="1"
     objecttolerance="10"
     gridtolerance="10"
     guidetolerance="10"
     inkscape:pageopacity="0"
     inkscape:pageshadow="2"
     inkscape:window-width="1920"
     inkscape:window-height="1137"
     id="namedview4576"
     showgrid="false"
     units="in"
     inkscape:zoom="0.39333333"
     inkscape:cx="300"
     inkscape:cy="300"
     inkscape:window-x="-8"
     inkscape:window-y="-8"
     inkscape:window-maximized="1"
     inkscape:current-layer="svg4574" />
  <circle
     cx="300"
     cy="300"
     r="300"
     id="circle4570"
     fill="#cbc2bf" />
  <path
     d="M 194.29485,111.79801 V 414.432 c 0,35.98801 15.40241,53.988 46.15791,53.988 h 7.83019 v 20.51998 H 87.086917 V 468.42 h 10.362096 c 29.585657,0 44.399627,-17.99999 44.399627,-53.988 V 215.95201 c 0,-36.48 -12.92955,-54.73801 -38.80175,-54.73801 H 87.086917 V 140.67 h 6.096076 c 31.427807,0 59.814117,-9.62396 85.145837,-28.87799 l 15.96602,0.007 v 0 z m 58.56008,199.96804 c 0,-47.14205 9.87631,-90.49202 29.63968,-130.00808 C 307.34693,132.6 341.32508,108 384.3868,108 c 41.58593,0 74.53214,21.04796 98.85607,63.09602 19.77578,34.48795 29.67021,74.28599 29.67021,119.38799 0,47.15396 -9.88806,90.234 -29.67021,129.27001 C 458.39692,467.92801 424.70091,492 382.12497,492 341.07313,492 308.36646,471.20999 284.01301,429.63 263.22877,394.662 252.85493,355.37397 252.85493,311.76605 Z m 54.73187,-22.05603 c 0,40.08001 4.30828,76.05597 12.93626,107.97596 13.18184,49.17002 34.70985,73.77005 64.62563,73.77005 48.66631,0 72.99025,-50.682 72.99025,-152.07601 0,-125.21401 -26.36401,-187.806 -79.09204,-187.806 -47.64611,0 -71.47218,48.62998 -71.47218,145.96799 v 12.16801 0 z"
     inkscape:connector-curvature="0"
     id="path121"
     style="fill:#0d0f0f" />
</svg>
