<?xml version="1.0" encoding="UTF-8" standalone="no"?>
<svg
   xmlns:dc="http://purl.org/dc/elements/1.1/"
   xmlns:cc="http://creativecommons.org/ns#"
   xmlns:rdf="http://www.w3.org/1999/02/22-rdf-syntax-ns#"
   xmlns:svg="http://www.w3.org/2000/svg"
   xmlns="http://www.w3.org/2000/svg"
   xmlns:sodipodi="http://sodipodi.sourceforge.net/DTD/sodipodi-0.dtd"
   xmlns:inkscape="http://www.inkscape.org/namespaces/inkscape"
   viewBox="0 0 600 600"
   version="1.1"
   id="svg9267"
   sodipodi:docname="md-mana-16.svg"
   inkscape:version="0.92.4 (5da689c313, 2019-01-14)">
  <metadata
     id="metadata9273">
    <rdf:RDF>
      <cc:Work
         rdf:about="">
        <dc:format>image/svg+xml</dc:format>
        <dc:type
           rdf:resource="http://purl.org/dc/dcmitype/StillImage" />
        <dc:title></dc:title>
      </cc:Work>
    </rdf:RDF>
  </metadata>
  <defs
     id="defs9271" />
  <sodipodi:namedview
     pagecolor="#ffffff"
     bordercolor="#666666"
     borderopacity="1"
     objecttolerance="10"
     gridtolerance="10"
     guidetolerance="10"
     inkscape:pageopacity="0"
     inkscape:pageshadow="2"
     inkscape:window-width="1920"
     inkscape:window-height="1017"
     id="namedview9269"
     showgrid="false"
     inkscape:zoom="0.39333333"
     inkscape:cx="300"
     inkscape:cy="401.69492"
     inkscape:window-x="1912"
     inkscape:window-y="113"
     inkscape:window-maximized="1"
     inkscape:current-layer="svg9267" />
  <circle
     cx="300"
     cy="300"
     r="300"
     id="circle9263"
     fill="#cbc2bf" />
  <path
     d="m 201.89102,109.93499 v 305.028 c 0,36.28199 15.09601,54.42 45.22197,54.42 h 7.67403 v 20.68202 H 92.295005 v -20.68202 h 10.734005 c 30.65398,0 46.00798,-18.13801 46.00798,-54.42 V 214.89901 c 0,-36.76203 -13.04399,-55.15806 -39.11999,-55.15806 H 93.825015 v -20.70594 h 6.13801 c 31.685995,0 60.293995,-9.70203 85.829995,-29.10002 z m 120.34797,164.75398 c 28.104,-26.53202 56.44804,-39.85798 85.07999,-39.85798 30.65405,0 55.416,12.29398 74.34605,36.80998 17.36998,22.47598 26.03996,49.82998 26.03996,82.00799 0,34.74601 -10.21797,65.15401 -30.65398,91.19398 -22.47602,29.13004 -50.57999,43.68603 -84.29405,43.68603 -39.85798,0 -72.03596,-17.36996 -96.58796,-52.10403 -21.45598,-30.65394 -32.18996,-66.93593 -32.18996,-108.84597 0,-44.94 12.25795,-86.22597 36.80995,-123.78599 24.50403,-37.548 57.48001,-64.242 98.86201,-80.08801 22.98002,-8.70598 47.53201,-13.04399 73.572,-13.04399 v 19.93198 c -55.15803,2.56803 -96.30597,24.55199 -123.37799,65.92804 -13.82403,21.474 -23.022,47.514 -27.60602,78.16797 z m -3.83998,37.58401 c -0.49202,7.638 -0.77403,15.318 -0.77403,22.98002 0,29.62797 5.11201,56.97598 15.35403,82.03198 13.27799,32.67 32.67001,49.02001 58.24201,49.02001 21.96001,0 38.58002,-11.22599 49.80598,-33.71402 8.17803,-17.36996 12.25802,-38.57999 12.25802,-63.62398 0,-26.04 -3.79801,-48.52799 -11.47204,-67.41601 -11.262,-25.572 -28.374,-38.33402 -51.36599,-38.33402 -28.104,0 -52.11597,16.34999 -72.04798,49.05602 z"
     inkscape:connector-curvature="0"
     id="path85"
     style="fill:#0d0f0f" />
</svg>
