<?xml version="1.0" encoding="UTF-8" standalone="no"?>
<svg
   xmlns:dc="http://purl.org/dc/elements/1.1/"
   xmlns:cc="http://creativecommons.org/ns#"
   xmlns:rdf="http://www.w3.org/1999/02/22-rdf-syntax-ns#"
   xmlns:svg="http://www.w3.org/2000/svg"
   xmlns="http://www.w3.org/2000/svg"
   xmlns:sodipodi="http://sodipodi.sourceforge.net/DTD/sodipodi-0.dtd"
   xmlns:inkscape="http://www.inkscape.org/namespaces/inkscape"
   viewBox="0 0 600 600"
   version="1.1"
   id="svg4"
   sodipodi:docname="chaos.svg"
   inkscape:version="0.92.4 (5da689c313, 2019-01-14)">
  <metadata
     id="metadata10">
    <rdf:RDF>
      <cc:Work
         rdf:about="">
        <dc:format>image/svg+xml</dc:format>
        <dc:type
           rdf:resource="http://purl.org/dc/dcmitype/StillImage" />
      </cc:Work>
    </rdf:RDF>
  </metadata>
  <defs
     id="defs8" />
  <sodipodi:namedview
     pagecolor="#ffffff"
     bordercolor="#666666"
     borderopacity="1"
     objecttolerance="10"
     gridtolerance="10"
     guidetolerance="10"
     inkscape:pageopacity="0"
     inkscape:pageshadow="2"
     inkscape:window-width="1920"
     inkscape:window-height="1137"
     id="namedview6"
     showgrid="false"
     inkscape:zoom="0.39333333"
     inkscape:cx="300"
     inkscape:cy="300"
     inkscape:window-x="-8"
     inkscape:window-y="-8"
     inkscape:window-maximized="1"
     inkscape:current-layer="svg4" />
  <path
     d="m 378.37278,67.85737 c -177.76348,8.122366 20.5621,159.5172 -79.69574,239.31933 0,0 -0.0136,0.0271 -0.027,0.0271 -0.006,-0.0271 -0.019,-0.0378 -0.0339,-0.0487 -0.49316,0.19734 -0.92831,0.4255 -1.4166,0.62365 -70.21968,28.42349 -148.40212,-85.6473 -150.67929,34.21043 37.0824,-55.62834 53.98944,-1.31975 114.94577,-4.72346 -29.603,39.11308 -15.08911,104.73955 -64.4469,115.41945 C 106.85135,472.18378 40.871764,362.57068 46.368828,293.77243 58.576545,140.98532 178.30867,71.524711 297.1996,78.684921 139.82905,47.172156 6.4243043,176.87353 10.330752,311.41438 c 4.486654,154.27636 86.333802,229.7804 211.959468,239.92369 177.76344,-8.11259 -20.5621,-159.52696 79.69581,-239.31922 0.007,0 0.0136,-0.0271 0.0271,-0.0271 0.0136,0.0271 0.019,0.0378 0.0338,0.0486 0.49314,-0.19734 0.92827,-0.4255 1.42139,-0.62365 70.21484,-28.4235 148.40691,85.64707 150.67444,-34.2107 -37.07754,55.62835 -53.98948,1.32002 -114.94576,4.72346 29.60306,-39.11285 15.09884,-104.73952 64.45181,-115.40979 90.1726,-19.49847 156.14251,90.10482 150.64544,158.90306 C 542.09621,478.21991 422.3592,547.67074 303.46832,540.51052 460.83887,572.02335 594.24361,442.32182 590.3323,307.77139 585.85044,153.5047 503.99361,78.010342 378.37278,67.857398 Z"
     id="path2"
     inkscape:connector-curvature="0"
     style="stroke-width:0.96694839" />
</svg>
